<?xml version="1.0" standalone="no"?>
<!DOCTYPE svg PUBLIC "-//W3C//DTD SVG 20010904//EN"
 "http://www.w3.org/TR/2001/REC-SVG-20010904/DTD/svg10.dtd">
<svg version="1.0" xmlns="http://www.w3.org/2000/svg"
 width="256.000000pt" height="256.000000pt" viewBox="0 0 256.000000 256.000000"
 preserveAspectRatio="xMidYMid meet">

<g transform="translate(0.000000,256.000000) scale(0.100000,-0.100000)"
fill="#000000" stroke="none">
<path d="M0 1280 l0 -1280 1280 0 1280 0 0 1280 0 1280 -1280 0 -1280 0 0
-1280z m1362 419 c84 -18 158 -58 219 -118 168 -168 168 -434 0 -602 -168
-168 -434 -168 -602 0 -168 168 -168 434 0 602 105 104 245 147 383 118z"/>
<path d="M1200 1656 c-200 -43 -335 -241 -300 -438 47 -257 323 -398 553 -282
149 76 236 246 207 407 -30 162 -153 286 -315 316 -69 13 -74 13 -145 -3z
m181 -141 c24 -9 55 -24 69 -35 24 -18 24 -19 6 -39 -17 -19 -21 -19 -35 -6
-78 69 -218 55 -288 -30 -97 -118 -40 -286 110 -326 40 -11 47 -17 47 -37 0
-23 -2 -24 -42 -18 -57 9 -134 53 -169 96 -38 45 -63 130 -55 187 10 73 45
127 118 182 54 40 162 52 239 26z m74 -439 c-37 -27 -55 -27 -55 1 0 14 8 32
18 39 14 11 20 10 37 -6 19 -20 19 -20 0 -34z"/>
</g>
</svg>
